<mxfile host="app.diagrams.net" agent="Mozilla/5.0 (X11; Linux x86_64) AppleWebKit/537.36 (KHTML, like Gecko) Chrome/130.0.0.0 YaBrowser/24.12.0.0 Safari/537.36" version="26.0.13">
  <diagram name="Страница — 1" id="yr1EVBlZ5cmRYrYzLJKv">
    <mxGraphModel dx="1659" dy="932" grid="1" gridSize="10" guides="1" tooltips="1" connect="1" arrows="1" fold="1" page="1" pageScale="1" pageWidth="1169" pageHeight="827" math="0" shadow="0">
      <root>
        <mxCell id="0" />
        <mxCell id="1" parent="0" />
        <mxCell id="nd-K0JniW9nIahFwQqG8-1" value="Клиентское приложение" style="rounded=1;whiteSpace=wrap;html=1;strokeColor=#B20000;strokeWidth=1.9685;" parent="1" vertex="1">
          <mxGeometry x="117" y="70" width="1080" height="40" as="geometry" />
        </mxCell>
        <mxCell id="nd-K0JniW9nIahFwQqG8-2" value="Сервис &quot;User&quot;" style="rounded=1;whiteSpace=wrap;html=1;strokeWidth=3;" parent="1" vertex="1">
          <mxGeometry x="90" y="360" width="160" height="80" as="geometry" />
        </mxCell>
        <mxCell id="nd-K0JniW9nIahFwQqG8-3" value="Сервис &quot;Billing&quot;" style="rounded=1;whiteSpace=wrap;html=1;strokeWidth=3;" parent="1" vertex="1">
          <mxGeometry x="450" y="360" width="160" height="80" as="geometry" />
        </mxCell>
        <mxCell id="nd-K0JniW9nIahFwQqG8-4" value="Сервис &quot;Adv&quot;" style="rounded=1;whiteSpace=wrap;html=1;strokeWidth=3;" parent="1" vertex="1">
          <mxGeometry x="767" y="360" width="163" height="80" as="geometry" />
        </mxCell>
        <mxCell id="nd-K0JniW9nIahFwQqG8-6" value="" style="endArrow=classic;html=1;rounded=0;exitX=0.049;exitY=1.026;exitDx=0;exitDy=0;exitPerimeter=0;entryX=0.5;entryY=0;entryDx=0;entryDy=0;fillColor=#e51400;strokeColor=#B20000;strokeWidth=1.9685;" parent="1" source="nd-K0JniW9nIahFwQqG8-1" target="nd-K0JniW9nIahFwQqG8-2" edge="1">
          <mxGeometry width="50" height="50" relative="1" as="geometry">
            <mxPoint x="357" y="550" as="sourcePoint" />
            <mxPoint x="407" y="500" as="targetPoint" />
          </mxGeometry>
        </mxCell>
        <mxCell id="nd-K0JniW9nIahFwQqG8-7" value="Регистрация&amp;nbsp;&lt;div&gt;работа с профилем&lt;/div&gt;" style="edgeLabel;html=1;align=center;verticalAlign=middle;resizable=0;points=[];rotation=0;" parent="nd-K0JniW9nIahFwQqG8-6" vertex="1" connectable="0">
          <mxGeometry x="-0.0013" y="-1" relative="1" as="geometry">
            <mxPoint x="1" y="45" as="offset" />
          </mxGeometry>
        </mxCell>
        <mxCell id="nd-K0JniW9nIahFwQqG8-10" value="DB" style="strokeWidth=2;html=1;shape=mxgraph.flowchart.database;whiteSpace=wrap;strokeColor=#D79B00;" parent="1" vertex="1">
          <mxGeometry x="100" y="470" width="60" height="60" as="geometry" />
        </mxCell>
        <mxCell id="nd-K0JniW9nIahFwQqG8-11" value="" style="endArrow=classic;html=1;rounded=0;entryX=0.5;entryY=0;entryDx=0;entryDy=0;entryPerimeter=0;fillColor=#ffcd28;gradientColor=#ffa500;strokeColor=#d79b00;strokeWidth=1.9685;exitX=0.25;exitY=1;exitDx=0;exitDy=0;" parent="1" source="nd-K0JniW9nIahFwQqG8-2" target="nd-K0JniW9nIahFwQqG8-10" edge="1">
          <mxGeometry width="50" height="50" relative="1" as="geometry">
            <mxPoint x="107" y="614" as="sourcePoint" />
            <mxPoint x="177" y="765" as="targetPoint" />
          </mxGeometry>
        </mxCell>
        <mxCell id="nd-K0JniW9nIahFwQqG8-13" value="DB" style="strokeWidth=2;html=1;shape=mxgraph.flowchart.database;whiteSpace=wrap;strokeColor=#D79B00;" parent="1" vertex="1">
          <mxGeometry x="510" y="460" width="60" height="60" as="geometry" />
        </mxCell>
        <mxCell id="nd-K0JniW9nIahFwQqG8-14" value="" style="endArrow=classic;html=1;rounded=0;exitX=0.75;exitY=1;exitDx=0;exitDy=0;entryX=0.5;entryY=0;entryDx=0;entryDy=0;entryPerimeter=0;fillColor=#ffcd28;gradientColor=#ffa500;strokeColor=#d79b00;strokeWidth=1.9685;" parent="1" target="nd-K0JniW9nIahFwQqG8-13" edge="1">
          <mxGeometry width="50" height="50" relative="1" as="geometry">
            <mxPoint x="540" y="440" as="sourcePoint" />
            <mxPoint x="547" y="765" as="targetPoint" />
          </mxGeometry>
        </mxCell>
        <mxCell id="nd-K0JniW9nIahFwQqG8-15" value="" style="endArrow=classic;html=1;rounded=0;entryX=0.649;entryY=0;entryDx=0;entryDy=0;entryPerimeter=0;fillColor=#0050ef;strokeColor=#006EAF;strokeWidth=1.9685;exitX=0.5;exitY=1;exitDx=0;exitDy=0;" parent="1" edge="1">
          <mxGeometry width="50" height="50" relative="1" as="geometry">
            <mxPoint x="920.38" y="440" as="sourcePoint" />
            <mxPoint x="920.0000000000001" y="600" as="targetPoint" />
          </mxGeometry>
        </mxCell>
        <mxCell id="nd-K0JniW9nIahFwQqG8-16" value="Отправка нотификаций&lt;div&gt;об изменении статуса объявления&lt;/div&gt;" style="edgeLabel;html=1;align=center;verticalAlign=middle;resizable=0;points=[];" parent="nd-K0JniW9nIahFwQqG8-15" vertex="1" connectable="0">
          <mxGeometry x="0.0019" y="1" relative="1" as="geometry">
            <mxPoint y="-60" as="offset" />
          </mxGeometry>
        </mxCell>
        <mxCell id="nd-K0JniW9nIahFwQqG8-73" value="Отправка объявлений на модерацию" style="edgeLabel;html=1;align=center;verticalAlign=middle;resizable=0;points=[];" parent="nd-K0JniW9nIahFwQqG8-15" vertex="1" connectable="0">
          <mxGeometry x="-0.0101" y="1" relative="1" as="geometry">
            <mxPoint as="offset" />
          </mxGeometry>
        </mxCell>
        <mxCell id="nd-K0JniW9nIahFwQqG8-19" value="Сервис &quot;Notification&quot;" style="rounded=1;whiteSpace=wrap;html=1;strokeWidth=3;" parent="1" vertex="1">
          <mxGeometry x="290" y="760" width="160" height="80" as="geometry" />
        </mxCell>
        <mxCell id="nd-K0JniW9nIahFwQqG8-20" value="" style="endArrow=classic;html=1;rounded=0;exitX=0.234;exitY=0.996;exitDx=0;exitDy=0;exitPerimeter=0;entryX=0.5;entryY=0;entryDx=0;entryDy=0;fillColor=#e51400;strokeColor=#B20000;strokeWidth=1.9685;" parent="1" source="nd-K0JniW9nIahFwQqG8-1" target="nd-K0JniW9nIahFwQqG8-19" edge="1">
          <mxGeometry width="50" height="50" relative="1" as="geometry">
            <mxPoint x="718.1200000000003" y="379.99999999999994" as="sourcePoint" />
            <mxPoint x="717" y="938.68" as="targetPoint" />
          </mxGeometry>
        </mxCell>
        <mxCell id="nd-K0JniW9nIahFwQqG8-21" value="Получение оповещений" style="edgeLabel;html=1;align=center;verticalAlign=middle;resizable=0;points=[];" parent="nd-K0JniW9nIahFwQqG8-20" vertex="1" connectable="0">
          <mxGeometry x="-0.5448" relative="1" as="geometry">
            <mxPoint x="-2" y="32" as="offset" />
          </mxGeometry>
        </mxCell>
        <mxCell id="nd-K0JniW9nIahFwQqG8-22" value="Kafka" style="rounded=1;whiteSpace=wrap;html=1;fillColor=default;strokeColor=#006EAF;strokeWidth=1.9685;" parent="1" vertex="1">
          <mxGeometry x="277" y="600" width="880" height="40" as="geometry" />
        </mxCell>
        <mxCell id="nd-K0JniW9nIahFwQqG8-23" value="" style="endArrow=classic;html=1;rounded=0;entryX=1;entryY=0.5;entryDx=0;entryDy=0;exitX=0;exitY=0.5;exitDx=0;exitDy=0;fillColor=#e51400;strokeColor=#B20000;strokeWidth=1.9685;" parent="1" source="nd-K0JniW9nIahFwQqG8-4" target="nd-K0JniW9nIahFwQqG8-3" edge="1">
          <mxGeometry width="50" height="50" relative="1" as="geometry">
            <mxPoint x="657" y="420" as="sourcePoint" />
            <mxPoint x="707" y="370" as="targetPoint" />
          </mxGeometry>
        </mxCell>
        <mxCell id="nd-K0JniW9nIahFwQqG8-24" value="Списание с баланса&amp;nbsp;&lt;div&gt;при создании оъявлений&lt;/div&gt;" style="edgeLabel;html=1;align=center;verticalAlign=middle;resizable=0;points=[];" parent="nd-K0JniW9nIahFwQqG8-23" vertex="1" connectable="0">
          <mxGeometry x="0.0083" relative="1" as="geometry">
            <mxPoint y="-20" as="offset" />
          </mxGeometry>
        </mxCell>
        <mxCell id="nd-K0JniW9nIahFwQqG8-65" value="Пополнение баланса&amp;nbsp;&lt;div&gt;при создании оъявлений&lt;/div&gt;" style="edgeLabel;html=1;align=center;verticalAlign=middle;resizable=0;points=[];" parent="nd-K0JniW9nIahFwQqG8-23" vertex="1" connectable="0">
          <mxGeometry x="0.0083" relative="1" as="geometry">
            <mxPoint x="302" y="-20" as="offset" />
          </mxGeometry>
        </mxCell>
        <mxCell id="nd-K0JniW9nIahFwQqG8-27" value="DB" style="strokeWidth=2;html=1;shape=mxgraph.flowchart.database;whiteSpace=wrap;strokeColor=#D79B00;" parent="1" vertex="1">
          <mxGeometry x="300" y="870" width="60" height="60" as="geometry" />
        </mxCell>
        <mxCell id="nd-K0JniW9nIahFwQqG8-28" value="" style="endArrow=classic;html=1;rounded=0;exitX=0.25;exitY=1;exitDx=0;exitDy=0;entryX=0.5;entryY=0;entryDx=0;entryDy=0;entryPerimeter=0;fillColor=#ffcd28;gradientColor=#ffa500;strokeColor=#d79b00;strokeWidth=1.9685;" parent="1" source="nd-K0JniW9nIahFwQqG8-19" target="nd-K0JniW9nIahFwQqG8-27" edge="1">
          <mxGeometry width="50" height="50" relative="1" as="geometry">
            <mxPoint x="797" y="920" as="sourcePoint" />
            <mxPoint x="817" y="1070" as="targetPoint" />
          </mxGeometry>
        </mxCell>
        <mxCell id="nd-K0JniW9nIahFwQqG8-29" value="" style="endArrow=classic;html=1;rounded=0;entryX=0.5;entryY=0;entryDx=0;entryDy=0;exitX=0.679;exitY=1.003;exitDx=0;exitDy=0;exitPerimeter=0;fillColor=#e51400;strokeColor=#B20000;strokeWidth=1.9685;" parent="1" source="nd-K0JniW9nIahFwQqG8-1" target="nd-K0JniW9nIahFwQqG8-4" edge="1">
          <mxGeometry width="50" height="50" relative="1" as="geometry">
            <mxPoint x="1157" y="381" as="sourcePoint" />
            <mxPoint x="1057" y="630" as="targetPoint" />
          </mxGeometry>
        </mxCell>
        <mxCell id="nd-K0JniW9nIahFwQqG8-30" value="Создание, редактирование объявлений&lt;div&gt;управление состоянием&lt;/div&gt;" style="edgeLabel;html=1;align=center;verticalAlign=middle;resizable=0;points=[];" parent="nd-K0JniW9nIahFwQqG8-29" vertex="1" connectable="0">
          <mxGeometry x="0.0102" relative="1" as="geometry">
            <mxPoint x="-1" y="44" as="offset" />
          </mxGeometry>
        </mxCell>
        <mxCell id="nd-K0JniW9nIahFwQqG8-31" value="" style="endArrow=classic;html=1;rounded=0;exitX=1;exitY=0.5;exitDx=0;exitDy=0;entryX=0.048;entryY=0.012;entryDx=0;entryDy=0;entryPerimeter=0;fillColor=#0050ef;strokeColor=#006EAF;strokeWidth=1.9685;" parent="1" source="nd-K0JniW9nIahFwQqG8-2" target="nd-K0JniW9nIahFwQqG8-22" edge="1">
          <mxGeometry width="50" height="50" relative="1" as="geometry">
            <mxPoint x="327" y="760" as="sourcePoint" />
            <mxPoint x="377" y="710" as="targetPoint" />
            <Array as="points">
              <mxPoint x="320" y="400" />
            </Array>
          </mxGeometry>
        </mxCell>
        <mxCell id="nd-K0JniW9nIahFwQqG8-32" value="" style="endArrow=classic;html=1;rounded=0;exitX=0;exitY=0.5;exitDx=0;exitDy=0;entryX=0.139;entryY=0.026;entryDx=0;entryDy=0;entryPerimeter=0;fillColor=#0050ef;strokeColor=#006EAF;strokeWidth=1.9685;" parent="1" source="nd-K0JniW9nIahFwQqG8-3" target="nd-K0JniW9nIahFwQqG8-22" edge="1">
          <mxGeometry width="50" height="50" relative="1" as="geometry">
            <mxPoint x="347" y="670" as="sourcePoint" />
            <mxPoint x="397" y="620" as="targetPoint" />
            <Array as="points">
              <mxPoint x="400" y="400" />
            </Array>
          </mxGeometry>
        </mxCell>
        <mxCell id="nd-K0JniW9nIahFwQqG8-33" value="Создание счёта пользователя и бонусного счёта&lt;div&gt;после успешной регистрации&lt;/div&gt;" style="text;html=1;align=center;verticalAlign=middle;resizable=0;points=[];autosize=1;strokeColor=none;fillColor=default;" parent="1" vertex="1">
          <mxGeometry x="230" y="460" width="290" height="40" as="geometry" />
        </mxCell>
        <mxCell id="nd-K0JniW9nIahFwQqG8-34" value="" style="endArrow=none;html=1;rounded=0;strokeColor=#B20000;strokeWidth=3.1496;" parent="1" edge="1">
          <mxGeometry width="50" height="50" relative="1" as="geometry">
            <mxPoint x="1260" y="205" as="sourcePoint" />
            <mxPoint x="1300" y="205" as="targetPoint" />
          </mxGeometry>
        </mxCell>
        <mxCell id="nd-K0JniW9nIahFwQqG8-35" value="" style="endArrow=none;html=1;rounded=0;strokeWidth=3.1496;strokeColor=#006EAF;" parent="1" edge="1">
          <mxGeometry width="50" height="50" relative="1" as="geometry">
            <mxPoint x="1260" y="244.82999999999998" as="sourcePoint" />
            <mxPoint x="1300" y="244.82999999999998" as="targetPoint" />
          </mxGeometry>
        </mxCell>
        <mxCell id="nd-K0JniW9nIahFwQqG8-36" value="" style="endArrow=none;html=1;rounded=0;strokeWidth=3.1496;strokeColor=#2D7600;" parent="1" edge="1">
          <mxGeometry width="50" height="50" relative="1" as="geometry">
            <mxPoint x="1260" y="285" as="sourcePoint" />
            <mxPoint x="1300" y="285" as="targetPoint" />
          </mxGeometry>
        </mxCell>
        <mxCell id="nd-K0JniW9nIahFwQqG8-37" value="" style="endArrow=none;html=1;rounded=0;strokeWidth=3.1496;strokeColor=#D79B00;" parent="1" edge="1">
          <mxGeometry width="50" height="50" relative="1" as="geometry">
            <mxPoint x="1260" y="325" as="sourcePoint" />
            <mxPoint x="1300" y="325" as="targetPoint" />
          </mxGeometry>
        </mxCell>
        <mxCell id="nd-K0JniW9nIahFwQqG8-38" value="HTTP запросы" style="text;html=1;align=center;verticalAlign=middle;resizable=0;points=[];autosize=1;strokeColor=none;fillColor=none;" parent="1" vertex="1">
          <mxGeometry x="1310" y="190" width="100" height="30" as="geometry" />
        </mxCell>
        <mxCell id="nd-K0JniW9nIahFwQqG8-39" value="Запросы к Kafka" style="text;html=1;align=center;verticalAlign=middle;resizable=0;points=[];autosize=1;strokeColor=none;fillColor=none;" parent="1" vertex="1">
          <mxGeometry x="1311" y="230" width="110" height="30" as="geometry" />
        </mxCell>
        <mxCell id="nd-K0JniW9nIahFwQqG8-40" value="Запросы к Redis" style="text;html=1;align=center;verticalAlign=middle;resizable=0;points=[];autosize=1;strokeColor=none;fillColor=none;" parent="1" vertex="1">
          <mxGeometry x="1310" y="270" width="110" height="30" as="geometry" />
        </mxCell>
        <mxCell id="nd-K0JniW9nIahFwQqG8-41" value="Запросы к DB" style="text;html=1;align=center;verticalAlign=middle;resizable=0;points=[];autosize=1;strokeColor=none;fillColor=none;" parent="1" vertex="1">
          <mxGeometry x="1309" y="311" width="100" height="30" as="geometry" />
        </mxCell>
        <mxCell id="nd-K0JniW9nIahFwQqG8-50" value="" style="endArrow=classic;html=1;rounded=0;entryX=0.5;entryY=0;entryDx=0;entryDy=0;fillColor=#e51400;strokeColor=#B20000;strokeWidth=1.9685;exitX=0.941;exitY=1.018;exitDx=0;exitDy=0;exitPerimeter=0;" parent="1" source="nd-K0JniW9nIahFwQqG8-1" edge="1">
          <mxGeometry width="50" height="50" relative="1" as="geometry">
            <mxPoint x="1131.1" y="210" as="sourcePoint" />
            <mxPoint x="1131.1" y="360" as="targetPoint" />
          </mxGeometry>
        </mxCell>
        <mxCell id="nd-K0JniW9nIahFwQqG8-51" value="Текущее состояние" style="edgeLabel;html=1;align=center;verticalAlign=middle;resizable=0;points=[];" parent="nd-K0JniW9nIahFwQqG8-50" vertex="1" connectable="0">
          <mxGeometry x="0.0467" y="-1" relative="1" as="geometry">
            <mxPoint x="-9" y="9" as="offset" />
          </mxGeometry>
        </mxCell>
        <mxCell id="nd-K0JniW9nIahFwQqG8-52" value="" style="endArrow=classic;html=1;rounded=0;entryX=0.151;entryY=1.011;entryDx=0;entryDy=0;entryPerimeter=0;exitX=0.75;exitY=0;exitDx=0;exitDy=0;strokeColor=#006EAF;strokeWidth=2;" parent="1" source="nd-K0JniW9nIahFwQqG8-19" target="nd-K0JniW9nIahFwQqG8-22" edge="1">
          <mxGeometry width="50" height="50" relative="1" as="geometry">
            <mxPoint x="320" y="790" as="sourcePoint" />
            <mxPoint x="370" y="740" as="targetPoint" />
          </mxGeometry>
        </mxCell>
        <mxCell id="nd-K0JniW9nIahFwQqG8-53" value="" style="endArrow=classic;html=1;rounded=0;entryX=0.75;entryY=1;entryDx=0;entryDy=0;exitX=0;exitY=0.5;exitDx=0;exitDy=0;strokeWidth=2;fillColor=#a20025;strokeColor=#B20000;" parent="1" source="nd-K0JniW9nIahFwQqG8-19" target="nd-K0JniW9nIahFwQqG8-2" edge="1">
          <mxGeometry width="50" height="50" relative="1" as="geometry">
            <mxPoint x="50" y="630" as="sourcePoint" />
            <mxPoint x="100" y="580" as="targetPoint" />
            <Array as="points">
              <mxPoint x="210" y="800" />
            </Array>
          </mxGeometry>
        </mxCell>
        <mxCell id="nd-K0JniW9nIahFwQqG8-54" value="Получение email&amp;nbsp;&lt;div&gt;пользователей&lt;/div&gt;" style="edgeLabel;html=1;align=center;verticalAlign=middle;resizable=0;points=[];" parent="nd-K0JniW9nIahFwQqG8-53" vertex="1" connectable="0">
          <mxGeometry x="0.017" y="-4" relative="1" as="geometry">
            <mxPoint as="offset" />
          </mxGeometry>
        </mxCell>
        <mxCell id="nd-K0JniW9nIahFwQqG8-57" value="DB" style="strokeWidth=2;html=1;shape=mxgraph.flowchart.database;whiteSpace=wrap;strokeColor=#D79B00;" parent="1" vertex="1">
          <mxGeometry x="760" y="460" width="60" height="60" as="geometry" />
        </mxCell>
        <mxCell id="nd-K0JniW9nIahFwQqG8-58" value="" style="endArrow=classic;html=1;rounded=0;exitX=0.75;exitY=1;exitDx=0;exitDy=0;entryX=0.5;entryY=0;entryDx=0;entryDy=0;entryPerimeter=0;fillColor=#ffcd28;gradientColor=#ffa500;strokeColor=#d79b00;strokeWidth=1.9685;" parent="1" target="nd-K0JniW9nIahFwQqG8-57" edge="1">
          <mxGeometry width="50" height="50" relative="1" as="geometry">
            <mxPoint x="790" y="440" as="sourcePoint" />
            <mxPoint x="797" y="765" as="targetPoint" />
          </mxGeometry>
        </mxCell>
        <mxCell id="nd-K0JniW9nIahFwQqG8-59" value="" style="endArrow=classic;html=1;rounded=0;entryX=0.649;entryY=0;entryDx=0;entryDy=0;entryPerimeter=0;fillColor=#0050ef;strokeColor=#006EAF;strokeWidth=1.9685;exitX=0.5;exitY=1;exitDx=0;exitDy=0;" parent="1" edge="1">
          <mxGeometry width="50" height="50" relative="1" as="geometry">
            <mxPoint x="500.88" y="440" as="sourcePoint" />
            <mxPoint x="499.88" y="600" as="targetPoint" />
          </mxGeometry>
        </mxCell>
        <mxCell id="nd-K0JniW9nIahFwQqG8-60" value="Отправка нотификаций&amp;nbsp;&lt;div&gt;об изменении баланса&lt;/div&gt;" style="edgeLabel;html=1;align=center;verticalAlign=middle;resizable=0;points=[];" parent="nd-K0JniW9nIahFwQqG8-59" vertex="1" connectable="0">
          <mxGeometry x="0.0019" y="1" relative="1" as="geometry">
            <mxPoint y="20" as="offset" />
          </mxGeometry>
        </mxCell>
        <mxCell id="nd-K0JniW9nIahFwQqG8-61" value="Сервис &quot;Bonus&quot;" style="rounded=1;whiteSpace=wrap;html=1;strokeWidth=3;" parent="1" vertex="1">
          <mxGeometry x="1050" y="360" width="163" height="80" as="geometry" />
        </mxCell>
        <mxCell id="nd-K0JniW9nIahFwQqG8-62" value="" style="endArrow=classic;html=1;rounded=0;entryX=0.649;entryY=0;entryDx=0;entryDy=0;entryPerimeter=0;fillColor=#0050ef;strokeColor=#006EAF;strokeWidth=1.9685;exitX=0.5;exitY=1;exitDx=0;exitDy=0;" parent="1" edge="1">
          <mxGeometry width="50" height="50" relative="1" as="geometry">
            <mxPoint x="1132" y="440" as="sourcePoint" />
            <mxPoint x="1131" y="600" as="targetPoint" />
          </mxGeometry>
        </mxCell>
        <mxCell id="nd-K0JniW9nIahFwQqG8-63" value="Создание счёта" style="edgeLabel;html=1;align=center;verticalAlign=middle;resizable=0;points=[];" parent="nd-K0JniW9nIahFwQqG8-62" vertex="1" connectable="0">
          <mxGeometry x="0.0019" y="1" relative="1" as="geometry">
            <mxPoint x="18" as="offset" />
          </mxGeometry>
        </mxCell>
        <mxCell id="nd-K0JniW9nIahFwQqG8-64" value="" style="endArrow=classic;html=1;rounded=0;entryX=0;entryY=0.5;entryDx=0;entryDy=0;exitX=1;exitY=0.5;exitDx=0;exitDy=0;strokeWidth=2;strokeColor=#B20000;" parent="1" source="nd-K0JniW9nIahFwQqG8-4" target="nd-K0JniW9nIahFwQqG8-61" edge="1">
          <mxGeometry width="50" height="50" relative="1" as="geometry">
            <mxPoint x="650" y="330" as="sourcePoint" />
            <mxPoint x="700" y="280" as="targetPoint" />
          </mxGeometry>
        </mxCell>
        <mxCell id="nd-K0JniW9nIahFwQqG8-66" value="" style="endArrow=classic;html=1;rounded=0;entryX=0.75;entryY=1;entryDx=0;entryDy=0;strokeColor=#B20000;strokeWidth=2;" parent="1" edge="1">
          <mxGeometry width="50" height="50" relative="1" as="geometry">
            <mxPoint x="1100" y="440" as="sourcePoint" />
            <mxPoint x="580" y="440" as="targetPoint" />
            <Array as="points">
              <mxPoint x="1100" y="570" />
              <mxPoint x="580" y="570" />
            </Array>
          </mxGeometry>
        </mxCell>
        <mxCell id="nd-K0JniW9nIahFwQqG8-72" value="Пополнение счёта с деньгами с бонусного счёта" style="edgeLabel;html=1;align=center;verticalAlign=middle;resizable=0;points=[];" parent="nd-K0JniW9nIahFwQqG8-66" vertex="1" connectable="0">
          <mxGeometry x="0.0365" y="-3" relative="1" as="geometry">
            <mxPoint x="-46" y="-7" as="offset" />
          </mxGeometry>
        </mxCell>
        <mxCell id="nd-K0JniW9nIahFwQqG8-74" value="Сервис &quot;Moder&quot;" style="rounded=1;whiteSpace=wrap;html=1;strokeWidth=3;" parent="1" vertex="1">
          <mxGeometry x="570" y="760" width="160" height="80" as="geometry" />
        </mxCell>
        <mxCell id="nd-K0JniW9nIahFwQqG8-75" value="" style="endArrow=classic;html=1;rounded=0;entryX=0.424;entryY=0.98;entryDx=0;entryDy=0;entryPerimeter=0;exitX=0.5;exitY=0;exitDx=0;exitDy=0;strokeWidth=2;strokeColor=#006EAF;" parent="1" source="nd-K0JniW9nIahFwQqG8-74" target="nd-K0JniW9nIahFwQqG8-22" edge="1">
          <mxGeometry width="50" height="50" relative="1" as="geometry">
            <mxPoint x="480" y="860" as="sourcePoint" />
            <mxPoint x="530" y="810" as="targetPoint" />
          </mxGeometry>
        </mxCell>
        <mxCell id="nd-K0JniW9nIahFwQqG8-76" value="Получение объявлений для&amp;nbsp;&lt;div&gt;модерации и отправка результатов&lt;/div&gt;" style="edgeLabel;html=1;align=center;verticalAlign=middle;resizable=0;points=[];" parent="nd-K0JniW9nIahFwQqG8-75" vertex="1" connectable="0">
          <mxGeometry x="-0.12" y="-1" relative="1" as="geometry">
            <mxPoint as="offset" />
          </mxGeometry>
        </mxCell>
        <mxCell id="nd-K0JniW9nIahFwQqG8-77" value="Redis" style="strokeWidth=2;html=1;shape=mxgraph.flowchart.database;whiteSpace=wrap;strokeColor=#2D7600;" parent="1" vertex="1">
          <mxGeometry x="610" y="870" width="60" height="60" as="geometry" />
        </mxCell>
        <mxCell id="nd-K0JniW9nIahFwQqG8-78" value="" style="endArrow=classic;html=1;rounded=0;exitX=0.25;exitY=1;exitDx=0;exitDy=0;entryX=0.5;entryY=0;entryDx=0;entryDy=0;entryPerimeter=0;fillColor=#ffcd28;gradientColor=#ffa500;strokeColor=#2D7600;strokeWidth=1.9685;" parent="1" target="nd-K0JniW9nIahFwQqG8-77" edge="1">
          <mxGeometry width="50" height="50" relative="1" as="geometry">
            <mxPoint x="640" y="840" as="sourcePoint" />
            <mxPoint x="1127" y="1070" as="targetPoint" />
          </mxGeometry>
        </mxCell>
        <mxCell id="nd-K0JniW9nIahFwQqG8-81" value="" style="endArrow=classic;html=1;rounded=0;exitX=0.25;exitY=1;exitDx=0;exitDy=0;entryX=0.5;entryY=0;entryDx=0;entryDy=0;entryPerimeter=0;fillColor=#ffcd28;gradientColor=#ffa500;strokeColor=#2D7600;strokeWidth=1.9685;" parent="1" target="nd-K0JniW9nIahFwQqG8-82" edge="1">
          <mxGeometry width="50" height="50" relative="1" as="geometry">
            <mxPoint x="680" y="230" as="sourcePoint" />
            <mxPoint x="1167" y="460" as="targetPoint" />
          </mxGeometry>
        </mxCell>
        <mxCell id="nd-K0JniW9nIahFwQqG8-82" value="Redis" style="strokeWidth=2;html=1;shape=mxgraph.flowchart.database;whiteSpace=wrap;strokeColor=#2D7600;" parent="1" vertex="1">
          <mxGeometry x="650" y="260" width="60" height="60" as="geometry" />
        </mxCell>
        <mxCell id="nd-K0JniW9nIahFwQqG8-83" value="" style="endArrow=classic;html=1;rounded=0;entryX=0.5;entryY=0;entryDx=0;entryDy=0;fillColor=#e51400;strokeColor=#B20000;strokeWidth=1.9685;exitX=0.941;exitY=1.018;exitDx=0;exitDy=0;exitPerimeter=0;" parent="1" edge="1">
          <mxGeometry width="50" height="50" relative="1" as="geometry">
            <mxPoint x="519.72" y="110.28" as="sourcePoint" />
            <mxPoint x="517.8199999999999" y="359.28" as="targetPoint" />
          </mxGeometry>
        </mxCell>
        <mxCell id="nd-K0JniW9nIahFwQqG8-84" value="Текущее состояние&lt;div&gt;пополнение&lt;/div&gt;" style="edgeLabel;html=1;align=center;verticalAlign=middle;resizable=0;points=[];" parent="nd-K0JniW9nIahFwQqG8-83" vertex="1" connectable="0">
          <mxGeometry x="0.0467" y="-1" relative="1" as="geometry">
            <mxPoint x="2" y="20" as="offset" />
          </mxGeometry>
        </mxCell>
        <mxCell id="nd-K0JniW9nIahFwQqG8-43" value="Сервис &quot;Auth&quot;" style="rounded=1;whiteSpace=wrap;html=1;strokeWidth=3;" parent="1" vertex="1">
          <mxGeometry x="117" y="190" width="1080" height="40" as="geometry" />
        </mxCell>
      </root>
    </mxGraphModel>
  </diagram>
</mxfile>
